<svg id="Group_5871" data-name="Group 5871" xmlns="http://www.w3.org/2000/svg" xmlns:xlink="http://www.w3.org/1999/xlink" width="397" height="141.498" viewBox="0 0 397 141.498">
  <defs>
    <clipPath id="clip-path">
      <rect id="Rectangle_2953" data-name="Rectangle 2953" width="397" height="141.498" fill="#fff"/>
    </clipPath>
  </defs>
  <g id="Group_5870" data-name="Group 5870" clip-path="url(#clip-path)">
    <path id="Path_53226" data-name="Path 53226" d="M20.943,137.609h121.22v3.89H20.943ZM122.719,28.479a9.815,9.815,0,0,1-1.063.112q-40.072.008-80.147,0H40.42v76.988h82.346v-.966q0-37.569,0-75.138c0-.338-.039-.677-.06-1.015ZM81.164,101.373a34.046,34.046,0,1,1,34.342-34.051,33.952,33.952,0,0,1-34.342,34.051M122.7,28.465a6.782,6.782,0,0,0,.858.1q7.548.011,15.1.005h.861v-4.52h24.73a1.3,1.3,0,0,0-.649-.359q-25.673-7.419-51.346-14.839Q97.028,4.452,81.807.031a1.052,1.052,0,0,0-.561.015Q71.3,2.964,61.367,5.895q-28.5,8.356-57.012,16.7c-1.453.426-2.9.864-4.355,1.3.007.054.014.107.022.161H.86q10.938,0,21.877-.01c.586,0,.825.136.793.764-.049.945.032,1.9-.027,2.841-.045.726.168.948.923.943,5.031-.035,10.063-.018,15.1-.02.257,0,.514-.029.85-.05v-4.36h82.348v4.317l-.015-.014M123,116.17a70.373,70.373,0,0,1-16.578-1.457c-4.715-.983-9.453-1.747-14.3-1.194a39.712,39.712,0,0,0-8.851,2,.82.82,0,0,0-.495.5,16.557,16.557,0,0,0-.023,1.81l.922-.35a33.811,33.811,0,0,1,12.292-2.36,51.885,51.885,0,0,1,9.08,1.191c3.481.632,6.962,1.336,10.476,1.69,3.181.32,6.4.211,9.61.289.308.008.617,0,.961,0v1.881a2.478,2.478,0,0,1-.313.055,85.349,85.349,0,0,1-19.786-1.5A43.57,43.57,0,0,0,92.326,117.6a41.071,41.071,0,0,0-9.147,1.989c-.168.058-.4.256-.407.4-.048.589-.019,1.183-.019,1.78a1.233,1.233,0,0,0,.258,0c.412-.147.82-.3,1.23-.449a33.829,33.829,0,0,1,11.467-2.107,48.166,48.166,0,0,1,10.084,1.339,68.438,68.438,0,0,0,11.66,1.668c2.6.086,5.2.028,7.8.038.279,0,.558.024.833.036v1.895a.891.891,0,0,1-.237.086c-.729.009-1.459,0-2.188.016a82.176,82.176,0,0,1-17.1-1.409c-4.627-.9-9.27-1.686-14.026-1.2a43.271,43.271,0,0,0-9.312,1.932c-.188.062-.437.286-.453.454-.057.572-.022,1.153-.022,1.822.323-.113.546-.188.766-.269a35.507,35.507,0,0,1,12.245-2.283,53.864,53.864,0,0,1,9.308,1.131c3.727.639,7.46,1.3,11.22,1.662,2.965.288,5.972.141,8.96.186.28,0,.558,0,.824,0v1.942c-1.151,0-2.245-.027-3.336,0a78,78,0,0,1-16.878-1.441c-4.78-.909-9.6-1.643-14.468-.881-2.748.43-5.454,1.123-8.173,1.727a.744.744,0,0,0-.45.515,16.506,16.506,0,0,0-.021,1.758l1.039-.363a37.318,37.318,0,0,1,11.038-2.105,49.585,49.585,0,0,1,10.975,1.235,71.765,71.765,0,0,0,11.458,1.55c2.647.073,5.3.043,7.947.06.286,0,.573,0,.874,0,.042.366.073.645.1.912H138v-22.49H25.08v22.509H38.138c.055-.319.1-.6.159-.931,1.2,0,2.368.024,3.53-.005,2.744-.067,5.51.035,8.225-.288,3.9-.463,7.766-1.2,11.633-1.9a34.936,34.936,0,0,1,14.529.219c1.645.395,3.267.887,4.941,1.345a6.517,6.517,0,0,1,.011-1.076c.134-.791-.232-1.056-.959-1.269a42.515,42.515,0,0,0-20.246-.8,90.2,90.2,0,0,1-9.28,1.377c-3.358.287-6.744.242-10.118.334-.75.02-1.5,0-2.289,0v-1.942c.575,0,1.084.009,1.592,0,3.06-.061,6.144.085,9.175-.243,3.948-.429,7.872-1.147,11.775-1.9a35.98,35.98,0,0,1,17.215.538c1.033.3,2.052.649,3.085.978V123.6a38.986,38.986,0,0,0-18.567-1.535c-5.836.987-11.644,2.2-17.6,2.208-2.208,0-4.415,0-6.672,0V122.26c1.327,0,2.589.027,3.851-.005a75.138,75.138,0,0,0,7.639-.29c3.939-.507,7.854-1.241,11.755-2a33.806,33.806,0,0,1,16,.534c1.2.343,2.389.754,3.641,1.152,0-.542-.034-1.028.011-1.508.042-.455-.16-.634-.562-.761a41.679,41.679,0,0,0-10.422-1.909,45.34,45.34,0,0,0-11.775,1.235,85.338,85.338,0,0,1-19.857,1.517,1.469,1.469,0,0,1-.289-.067v-1.867c.39,0,.728.005,1.066,0,3.012-.055,6.05.115,9.029-.224,4.136-.472,8.256-1.2,12.336-2.047a34.087,34.087,0,0,1,17.755.679c.889.288,1.767.6,2.709.928,0-.592-.027-1.1.008-1.608.028-.4-.16-.54-.5-.655a39.422,39.422,0,0,0-10.331-1.985,47.758,47.758,0,0,0-12.7,1.407,81.1,81.1,0,0,1-19.211,1.359c-.042,0-.082-.042-.155-.082v-1.748a.777.777,0,0,1,.185-.073c.753-.007,1.508-.037,2.26-.01a70.237,70.237,0,0,0,17.632-1.747,63.932,63.932,0,0,1,8.824-1.4,30.341,30.341,0,0,1,14.447,2.761,1.288,1.288,0,0,0,1.151-.015A32.876,32.876,0,0,1,95.83,111.01a47.684,47.684,0,0,1,9.93,1.387,65.582,65.582,0,0,0,11.137,1.716c2.767.1,5.539.079,8.309.11.283,0,.566,0,.887,0v1.942c-1.066,0-2.082-.027-3.1,0m2.555-10.591h12.438v-74.7H125.551ZM37.515,30.905H25.09v74.684H37.515ZM138.869,132.766c-5.178,0-10.356.046-15.533-.017-3.082-.038-6.165-.209-9.244-.387-3.854-.222-7.7-.519-11.555-.773-4.337-.286-8.675-.557-13.012-.844-1.093-.072-1.091-.089-1.444.983-.129.391-.29.774-.385,1.174a.654.654,0,0,1-.757.583q-4.778-.027-9.554,0a.646.646,0,0,1-.726-.534c-.227-.74-.484-1.469-.73-2.209-.31,0-.576-.014-.841,0-3.151.195-6.3.386-9.453.593-2.835.187-5.667.411-8.5.585-4.7.289-9.4.687-14.107.792-6.268.141-12.542.045-18.814.051h-.869v3.468H139.758v-3.468h-.889" transform="translate(0 0)" fill="#fff"/>
    <path id="Path_53227" data-name="Path 53227" d="M284.037,120.6v-1.07c1.393,0,2.747.007,4.1,0,2.866-.018,5.734-.047,8.6-.063a16.3,16.3,0,0,1,7.328,1.233,7.849,7.849,0,0,1,1.358,13.456,33.169,33.169,0,0,1-3.472,2.02c.986,1.466,2.011,3.027,3.072,4.56,1.685,2.434,3.373,4.867,5.112,7.263a13.828,13.828,0,0,0,1.8,1.9,5.559,5.559,0,0,0,3.922,1.6v1.113c-.277.015-.581.046-.882.047-2.017,0-4.032-.024-6.047.017a1.445,1.445,0,0,1-1.2-.66,85.088,85.088,0,0,1-7.641-10.726c-.8-1.273-1.611-2.541-2.393-3.826a.88.88,0,0,0-.872-.494c-1.237.029-2.477.011-3.809.011-.013.282-.034.537-.034.792q-.005,5.1,0,10.2c0,.195,0,.389.012.583a2.655,2.655,0,0,0,2.792,2.885c.454.035.916.005,1.348.005.332,1.075.246,1.212-.714,1.212H284.053V151.57c.481-.034.984-.058,1.483-.106a2.856,2.856,0,0,0,2.816-3.086c.011-4.324,0-8.648,0-12.972q0-5.648,0-11.3a6.478,6.478,0,0,0-.1-1.156,2.321,2.321,0,0,0-2.2-2.156c-.643-.1-1.3-.129-2.016-.2m8.975,14.643a10.807,10.807,0,0,0,6.97-.733,7.271,7.271,0,0,0,3.619-7.968,5.938,5.938,0,0,0-5.126-5.3,33.749,33.749,0,0,0-4.767-.145c-.611-.015-.747.288-.744.858.023,4.2.012,8.4.015,12.6,0,.214.019.428.034.69m79.685.878c.323.481.668,1,1.02,1.52,2.072,3.051,4.128,6.114,6.23,9.145a22.357,22.357,0,0,0,1.96,2.345,6.462,6.462,0,0,0,4.7,2.4v1.073c-.306.015-.634.046-.961.046-1.968,0-3.936-.021-5.9.017a1.449,1.449,0,0,1-1.221-.617,94.275,94.275,0,0,1-8.449-12.022c-.528-.843-1.079-1.674-1.583-2.531a.93.93,0,0,0-.927-.535c-1.235.03-2.474.011-3.822.011v.814q0,5.1,0,10.2c0,.17,0,.341.008.51a2.7,2.7,0,0,0,2.9,2.943c.455.027.913,0,1.409,0v1.154c-.281.018-.562.05-.841.05q-5.76.005-11.519,0c-.957,0-.966-.012-.806-1.067l1.332-.12a2.855,2.855,0,0,0,2.892-3.088q.013-12.245,0-24.489c0-2.17-.912-3.092-3.077-3.213-.382-.022-.766-.035-1.187-.053v-1.1c1.4,0,2.752.007,4.1,0,2.844-.018,5.686-.05,8.529-.062a18.513,18.513,0,0,1,6.255.785c3.11,1.083,5.119,3.152,5.561,6.461a7.743,7.743,0,0,1-3.669,7.857,29.292,29.292,0,0,1-2.936,1.551m-8.909-.76c1.2.026,2.381.111,3.553.064a7.083,7.083,0,0,0,7.124-6.85c.214-3.628-1.281-6.658-5.426-7.395a28.446,28.446,0,0,0-4.56-.083c-.6-.009-.752.276-.75.855.024,4.2.012,8.4.014,12.6,0,.214.023.427.044.811M250.9,152.61v-1.023a18.034,18.034,0,0,0,1.893-.2,2.812,2.812,0,0,0,2.432-3.128q.011-7.541,0-15.082c0-2.962.006-5.925,0-8.888a8.218,8.218,0,0,0-.108-1.3,2.319,2.319,0,0,0-2.162-2.19c-.665-.106-1.342-.139-2.045-.208v-1.081c.494,0,.969,0,1.443,0,3.254-.016,6.51-.044,9.765-.044A16.34,16.34,0,0,1,269.745,121a6.647,6.647,0,0,1,.943,11.55,25.108,25.108,0,0,1-3.956,1.938c-.174.082-.37.117-.552.183-.032.012-.046.073-.089.148a12.794,12.794,0,0,1,6.052,1.629,8.024,8.024,0,0,1,4.463,6.8,7.69,7.69,0,0,1-4.017,7.393,15.528,15.528,0,0,1-8.1,2c-3.838.022-7.676-.022-11.516-.037-.673,0-1.346,0-2.079,0m8.968-16.6c-.024.265-.06.477-.058.689.017,3.91.028,7.82.064,11.73a2.36,2.36,0,0,0,2.124,2.548,15.147,15.147,0,0,0,3.326.167,6.588,6.588,0,0,0,6.064-4.571,9.188,9.188,0,0,0,.193-4.251,6.615,6.615,0,0,0-4.946-5.846,23.615,23.615,0,0,0-6.766-.465m-.018-1.394c1.4-.084,2.72-.065,4.007-.261a5.265,5.265,0,0,0,4.823-4.625,15.573,15.573,0,0,0,.125-4.042,4.711,4.711,0,0,0-4.608-4.586c-1.178-.132-2.375-.07-3.561-.144-.7-.043-.847.257-.842.9.024,3.959.012,7.92.013,11.879,0,.239.023.477.042.882m68.264,16.827v1.143H316.859v-1.068c.4-.066.8-.139,1.2-.2a3.227,3.227,0,0,0,2.678-1.888c.8-1.84,1.553-3.705,2.237-5.591q3.345-9.221,6.622-18.465a10.247,10.247,0,0,0,.845-4.944c.906-.747,1.739-1.429,2.567-2.118.422-.35.888-.2,1.1.38q1.973,5.431,3.939,10.863c2.24,6.2,4.452,12.4,6.723,18.588,1.026,2.791,1.395,3.005,4.617,3.39V152.6c-.27.018-.549.052-.827.053q-5.318.005-10.638,0c-.991,0-1.048-.078-.781-1.192.461,0,.943.025,1.422,0,1.559-.095,2.235-.936,1.772-2.424-.883-2.843-1.866-5.656-2.835-8.472a.689.689,0,0,0-.527-.35q-5.213-.031-10.425,0a.734.734,0,0,0-.546.412c-.736,2.557-1.443,5.123-2.143,7.691a3.26,3.26,0,0,0-.078.795,1.958,1.958,0,0,0,2.092,2.316c.721.055,1.449.009,2.242.009m-1.323-13.187h9.887c-1.716-4.705-3.4-9.324-5.084-13.944l-.2.008c-1.526,4.622-3.051,9.245-4.6,13.936m83.134-18.732V120.6c.78.053,1.512.05,2.227.164.884.141,1.256.55,1.054,1.408a6.686,6.686,0,0,1-1.05,2.27c-2.169,3.045-4.4,6.046-6.613,9.06-.122.166-.267.314-.429.5-.152-.192-.263-.319-.361-.455-1.8-2.531-3.612-5.057-5.4-7.6-.766-1.091-1.536-2.187-2.2-3.341-.625-1.085-.346-1.59.877-1.843.466-.1.946-.121,1.423-.179v-1.043H387.161v1.074c.527.062,1.005.155,1.485.169a3.089,3.089,0,0,1,2.505,1.405q5.048,6.955,10.091,13.914a1.335,1.335,0,0,1,.277.719c.018,3.912.05,7.823-.005,11.734-.028,1.874-.99,2.766-2.868,2.886-.475.031-.954,0-1.427,0v1.207h12.34c1.008,0,1.047-.05.817-1.2-.362,0-.744.014-1.126,0-2.17-.094-3.074-1.032-3.076-3.194,0-3.984-.012-7.968.015-11.953a2.048,2.048,0,0,1,.376-1.116c2.857-3.9,5.748-7.767,8.611-11.658,1.033-1.4,2.035-2.814,3.992-2.92v-1.095ZM196.436,120.67c2.368.059,3.286.993,3.311,3.365,0,.1,0,.195,0,.292q0,11.807,0,23.614a8,8,0,0,1-.051.943,2.527,2.527,0,0,1-2.127,2.433,20.8,20.8,0,0,1-2.1.3v1h2.216q8.715-.008,17.431-.015,2.186,0,4.374.071a.653.653,0,0,0,.789-.607c.266-1.231.594-2.449.888-3.674.23-.958.448-1.92.667-2.864-.683-.358-1.065-.238-1.213.486a5.2,5.2,0,0,1-.368.948,5.9,5.9,0,0,1-4.182,3.821,20.059,20.059,0,0,1-9.087-.078,3.13,3.13,0,0,1-2.543-3.15c-.032-.435-.061-.872-.062-1.307q-.005-10.969,0-21.938a9.919,9.919,0,0,1,.079-1.307,2.343,2.343,0,0,1,2.1-2.184c.687-.115,1.388-.148,2.085-.218v-1.043H195.448v1.117c.367,0,.678-.006.988,0m34.2.017c2.112.141,3,1.087,3.018,3.2v.219q0,11.988,0,23.977a6.177,6.177,0,0,1-.031.8,2.477,2.477,0,0,1-2.382,2.492c-.615.1-1.248.1-1.892.142v1.091c.8,0,1.55,0,2.3,0q4.994.023,9.988.046c1.053,0,1.124-.1.814-1.163-.152-.007-.319-.018-.486-.021-2.9-.058-3.687-.865-3.687-3.785V124.513c0-.389,0-.779.03-1.166a2.5,2.5,0,0,1,2.376-2.568,7.441,7.441,0,0,1,1.01-.107c.989-.03,1.054-.116.766-1.133H229.335v1.144c.481,0,.892-.024,1.3,0" transform="translate(-22.48 -13.587)" fill="#fff"/>
    <path id="Path_53228" data-name="Path 53228" d="M419.447,67.4c-.1.836-.217,1.67-.285,2.508-.083,1.035-.123,2.072-.183,3.143h-1.192c-.056-.592-.081-1.19-.174-1.778-.241-1.533-.85-2.3-2.389-2.361-2.833-.122-5.674-.035-8.608-.035v.8q0,12.865.006,25.727a7.01,7.01,0,0,0,.149,1.444c.273,1.282,1.151,1.93,2.736,2.039.455.032.914.005,1.418.005v1.141H397.757V98.982c.661-.064,1.336-.086,1.995-.2a2.4,2.4,0,0,0,2.211-2.4c.041-.435.071-.873.071-1.308q.007-12.681,0-25.363v-.888h-.848c-1.994,0-3.987-.009-5.981,0a13.942,13.942,0,0,0-1.521.12,3.015,3.015,0,0,0-2.75,2.334c-.094.326-.2.65-.289.975-.26.925-.258.926-1.4.736q.251-3.636.5-7.29a1,1,0,0,1,1.226.327,3.952,3.952,0,0,0,1.489.791,3.577,3.577,0,0,0,1.157.083q10.794,0,21.587-.007a9.093,9.093,0,0,0,1.943-.227,1.74,1.74,0,0,0,.982-.564,1.1,1.1,0,0,1,1.312-.46ZM324.674,82.24c3-1.895,4.5-4.584,4-8.172a7.414,7.414,0,0,0-5.7-6.4,20.887,20.887,0,0,0-5.232-.728c-3.448-.094-6.9.012-10.352.03-1.036.007-2.073,0-3.128,0v1.149c.444,0,.831-.019,1.215,0,2.036.115,2.833.879,3.021,2.889.027.289.032.581.032.873q0,11.7,0,23.4a9.281,9.281,0,0,1-.055,1.017,2.584,2.584,0,0,1-2.183,2.472,20.429,20.429,0,0,1-2.038.259v1h13.163V98.88c-.53,0-1.016.035-1.495-.006-1.592-.137-2.459-.847-2.678-2.194a9.739,9.739,0,0,1-.129-1.521c-.011-3.3-.005-6.607-.005-9.912v-.827c1.373,0,2.635-.031,3.894.022a1.244,1.244,0,0,1,.846.477c.612.873,1.151,1.8,1.719,2.7a85.033,85.033,0,0,0,8.5,11.98,1.591,1.591,0,0,0,1.038.468c1.99.047,3.982.011,5.975.034,1.017.011,1.117-.088.856-1.164a6.226,6.226,0,0,1-5.007-2.812c-3.043-4.111-5.974-8.3-8.992-12.521,1.054-.521,1.943-.866,2.735-1.366M313.107,69.314c0-.361-.007-.671.471-.74a12.692,12.692,0,0,1,5.979.31,6.3,6.3,0,0,1,4.339,6.18,7.235,7.235,0,0,1-7.31,7.806c-.966.027-1.934-.082-2.9-.1-.5-.011-.584-.272-.581-.7.014-2.137.006-4.274.006-6.412,0-2.112,0-4.226,0-6.339M196.185,100.091c3.28,0,6.56-.023,9.839.007a35.972,35.972,0,0,0,9.476-.811c8.469-2.2,12.383-8.755,12.508-15.414.119-6.274-2.78-11.03-8.137-14.253a20.457,20.457,0,0,0-10.737-2.708c-4.107-.007-8.214.039-12.32.059-.548,0-1.1,0-1.638,0v1.137c.406,0,.767-.006,1.127,0a2.856,2.856,0,0,1,3.176,2.948c.028.289.024.581.024.873q0,11.586,0,23.172c0,.243,0,.487-.012.728a2.752,2.752,0,0,1-2.662,2.91c-.547.084-1.1.144-1.666.219v1.129h1.022m7.96-30.454c0-1.023,0-1.052,1.008-1.143a19.231,19.231,0,0,1,8.135.712,13.169,13.169,0,0,1,8.535,8.447,18.3,18.3,0,0,1-.411,13.5c-1.99,4.726-5.759,7.023-10.761,7.43a13.868,13.868,0,0,1-3.268-.084c-2.218-.35-3.231-1.624-3.235-3.866q-.012-6.3,0-12.609V69.637M290.816,98.89a2.731,2.731,0,0,1-2.958-3.035c0-.1,0-.195,0-.292V68.835c2.823,0,5.521-.049,8.217.017,1.794.044,2.562.847,2.783,2.626.065.522.116,1.046.174,1.572h1.182c.134-2.485.266-4.936.4-7.388l-.238-.182c-.309.187-.618.372-.926.56a4.2,4.2,0,0,1-1.047.616,8.148,8.148,0,0,1-1.942.241q-10.829.024-21.66.008a3.446,3.446,0,0,1-1.156-.09A3.822,3.822,0,0,1,272.166,66a1.01,1.01,0,0,0-1.194-.312c-.166,2.443-.333,4.895-.5,7.342,1.132.106,1.133.106,1.4-.848.75-2.651,1.643-3.332,4.407-3.358h.073q3.064,0,6.126,0c.234,0,.467.025.753.04v.708q0,12.9,0,25.8c0,.292,0,.584-.028.875a2.472,2.472,0,0,1-2.312,2.547c-.615.106-1.246.124-1.863.181-.242,1.048-.166,1.132.8,1.13,3.474-.01,6.949,0,10.424,0h1.935V98.893c-.509,0-.944.019-1.377,0m93.645-6.96a9.7,9.7,0,0,1-11.172,7.3,13.862,13.862,0,0,1-9.731-6.637,18.487,18.487,0,0,1-2.394-13.843,13.018,13.018,0,0,1,5.094-8.452,13.574,13.574,0,0,1,10.7-2.424c4,.674,6.569,2.946,7.406,6.986.175.849.676.589,1.265.542-.158-2.177-.3-4.3-.488-6.422-.014-.16-.291-.361-.486-.431q-1.61-.571-3.242-1.081a21.886,21.886,0,0,0-11.124-.908c-5.676,1.2-10.084,4.19-12.777,9.425a16.716,16.716,0,0,0-1.191,11.35c1.063,5.144,3.782,9.137,8.565,11.464,6.413,3.12,12.852,2.4,19.22-.244a1.364,1.364,0,0,0,.571-.886c.2-.849.3-1.718.431-2.581.184-1.215.359-2.431.543-3.674l-.982-.275c-.086.33-.146.562-.207.794M248.273,93.118c.171,1.25.374,2.495.518,3.748.288,2.515.266,2.55,2.687,3.241a14.437,14.437,0,0,0,11.172-.836c6.246-3.327,6.521-11.888,1.084-15.47-1.414-.93-2.956-1.666-4.41-2.54a33.737,33.737,0,0,1-4.4-2.811c-3.209-2.687-2.368-7.84.166-9.7a6.146,6.146,0,0,1,9.53,3.423c.186.746.481.91,1.2.679-.25-1.978-.5-3.959-.75-5.933l-.932-.165a20.573,20.573,0,0,0-7.308-.345c-3.174.573-5.762,2.052-6.971,5.175A9.622,9.622,0,0,0,250.9,81.2c1.368,1.883,3.422,2.887,5.392,4a35.526,35.526,0,0,1,4.847,3.055,6.358,6.358,0,0,1-2.352,10.8,6.713,6.713,0,0,1-7.691-2.7,38.021,38.021,0,0,1-2.149-4.018H248.2c.027.308.037.545.07.78M339.952,68.1c3.179.15,3.819.824,3.819,4.035q0,11.369,0,22.738c0,.438,0,.876-.027,1.312a2.487,2.487,0,0,1-2.328,2.61c-.657.113-1.33.129-1.969.187v1.05h13.261V98.885c-.523,0-1.007.031-1.487-.005a2.6,2.6,0,0,1-2.789-2.5,6.859,6.859,0,0,1-.037-.945q0-11.732,0-23.467c0-.316-.011-.633,0-.947a2.6,2.6,0,0,1,2.522-2.832c.591-.091,1.195-.1,1.791-.142V66.973H339.429v1.088c.195.014.358.032.523.039m-107.369.025c2.071.131,2.917,1,3.01,3.061.008.17,0,.342,0,.512q0,11.841,0,23.684a8.435,8.435,0,0,1-.081,1.233,2.336,2.336,0,0,1-2.049,2.144c-.707.127-1.432.155-2.148.227v1.051h13.191V98.9c-.376,0-.712.011-1.046,0-2.31-.086-3.194-.984-3.236-3.281,0-.122,0-.243,0-.365q0-11.732,0-23.466a10.216,10.216,0,0,1,.076-1.306,2.356,2.356,0,0,1,2.128-2.234c.687-.113,1.385-.15,2.076-.22V66.98H231.3v1.142c.472,0,.881-.023,1.288,0" transform="translate(-22.447 -7.531)" fill="#fff"/>
    <path id="Path_53229" data-name="Path 53229" d="M390.829,49.274h-2.361V30.835c2.768.127,5.552-.462,8.314.2a3.793,3.793,0,0,1,3.187,2.922,4.181,4.181,0,0,1-1.63,4.651,18.75,18.75,0,0,1-3.078,1.406,6.175,6.175,0,0,1-.656.187l7.266,9.136c-1,0-1.9.026-2.8-.019a.993.993,0,0,1-.6-.412c-2-2.651-3.992-5.316-5.989-7.973-.144-.192-.3-.437-.5-.506a2.528,2.528,0,0,0-1.1-.128c-.091.012-.176.5-.173.769.028,2.5.078,5,.12,7.5,0,.237,0,.475,0,.711m-.168-13.138.04,0c0,.923-.021,1.847.017,2.768.008.2.222.544.354.55a8.945,8.945,0,0,0,4.956-.835,3.522,3.522,0,0,0,1.694-3.932,2.941,2.941,0,0,0-2.5-2.679,31.464,31.464,0,0,0-3.755-.238c-.474-.027-.629.205-.643.656-.035,1.236-.1,2.473-.16,3.708m-7.782,13.139h-2.54c-.712-1.845-1.423-3.722-2.157-5.59-.644-1.639-.655-1.636-2.407-1.635-1.482,0-2.965.017-4.448,0a.77.77,0,0,0-.854.579c-.843,2.218-1.725,4.42-2.6,6.641h-1.623c.108-.265.2-.519.312-.766q3.851-8.674,7.706-17.345a1.185,1.185,0,0,1,.124-.262c.124-.158.264-.3.4-.455.153.158.372.288.451.477.709,1.7,1.376,3.415,2.088,5.113q2.639,6.3,5.3,12.6c.084.2.154.4.245.645M377,40.9l-2.873-6.861c-1.035,2.412-1.973,4.6-2.943,6.861Zm61.428,8.377h-2.537c-.6-1.577-1.2-3.205-1.836-4.822-.308-.785-.48-1.838-1.072-2.237s-1.636-.153-2.482-.163c-1.19-.012-2.381.021-3.57-.008a.819.819,0,0,0-.908.621c-.781,2.085-1.592,4.159-2.394,6.237-.051.132-.112.261-.157.366H421.8c.789-1.744,1.574-3.452,2.336-5.17q2.916-6.576,5.824-13.156a2.338,2.338,0,0,1,.428-.5c.14.142.341.258.411.428q3.813,9.114,7.6,18.24a1.009,1.009,0,0,1,.035.166m-11.677-8.388h5.819L429.7,34.041l-2.95,6.847m-19.3,8.422h9.453V47.846l-7.133.295V40.118h6.283V38.865h-6.251V31.979l6.963.257c.246-1.39.214-1.435-1.069-1.428-2.308.012-4.616.031-6.924.046-.453,0-.906,0-1.322,0Z" transform="translate(-42.125 -3.501)" fill="#fff"/>
    <path id="Path_53230" data-name="Path 53230" d="M289.017,30.712c2.7.092,5.4.026,8.057.325a3.654,3.654,0,0,1,3.5,3.266,4.385,4.385,0,0,1-2.233,4.679,19.028,19.028,0,0,1-2.547,1.029c-.175.068-.358.115-.655.208l7.247,9.113c-.977,0-1.846.023-2.712-.017a.957.957,0,0,1-.635-.343c-1.992-2.63-3.961-5.277-5.943-7.916a1.9,1.9,0,0,0-.592-.625,1.957,1.957,0,0,0-1.028-.16c-.1.012-.2.489-.2.75.027,2.62.075,5.241.114,7.861a2.906,2.906,0,0,1-.041.392h-2.332Zm2.341,8.763a9.9,9.9,0,0,0,5.141-.822,3.361,3.361,0,0,0,1.8-3.245,3.183,3.183,0,0,0-1.682-3.081c-1.654-.858-3.416-.639-5.259-.494Zm-76.717-8.763c2.7.091,5.387.065,8.052.313a3.657,3.657,0,0,1,3.488,3.193,4.359,4.359,0,0,1-2.261,4.8,19.019,19.019,0,0,1-2.482.994c-.175.068-.361.107-.681.2l7.268,9.129c-1,0-1.909.027-2.813-.019a1,1,0,0,1-.6-.42c-2-2.652-3.988-5.32-5.992-7.971a2.06,2.06,0,0,0-.76-.638c-.692-.3-.993-.086-.982.661.035,2.475.082,4.95.124,7.424.005.309,0,.619,0,.9h-2.358Zm2.35,8.691a9.3,9.3,0,0,0,5.081-.707,3.577,3.577,0,0,0,1.829-3.878A3.192,3.192,0,0,0,221.432,32a11.462,11.462,0,0,0-4.442-.153Zm31.633,9.873h-2.551c-.665-1.732-1.326-3.5-2.02-5.247-.788-1.983-.8-1.978-2.893-1.977-1.336,0-2.673.018-4.009-.006a.866.866,0,0,0-.965.643c-.833,2.2-1.707,4.376-2.574,6.58h-1.6c.065-.18.115-.353.188-.516q3.939-8.868,7.889-17.731a2.939,2.939,0,0,1,.456-.579,2.384,2.384,0,0,1,.479.553q3.716,8.885,7.407,17.781c.064.155.124.312.2.5M242.742,40.9c-.966-2.309-1.88-4.488-2.872-6.859-1.029,2.389-1.972,4.579-2.954,6.859Zm16.4,4.976c-.479-1.166-.973-2.327-1.425-3.5-1.389-3.62-2.758-7.248-4.148-10.868-.094-.242-.288-.613-.462-.63-.755-.07-1.519-.029-2.311-.029l7.326,18.423h1.727l7.4-18.393a3.9,3.9,0,0,1-.752-.008c-.739-.154-1.021.184-1.269.863-1.539,4.21-3.132,8.4-4.718,12.592-.278.735-.609,1.45-.99,2.35-.183-.381-.293-.585-.381-.8m66.738,2.26V40.131H332.2V38.863h-6.373c0-2.131-.011-4.265.021-6.4,0-.147.312-.405.489-.414.75-.04,1.505-.024,2.257.006,1.448.058,2.894.141,4.351.214v-1.4h-9.435V49.3H333V47.848l-7.116.289m-44.891-17.33q-3.5.019-7,.046c-.446,0-.893,0-1.259,0V49.313h9.457V47.846l-7.136.3V40.119h6.279V38.766c-.3,0-.562-.01-.823,0-1.528.065-3.057.112-4.582.212-.695.046-1-.1-.958-.9.071-1.5.012-3.011.026-4.516,0-.5.065-.995.106-1.589l6.941.262c.264-1.381.224-1.439-1.054-1.433m35.791.63a8.616,8.616,0,0,0-5.689-.812,5.059,5.059,0,0,0-4.035,4.093c-.331,2.514.485,4.031,2.795,5.191.281.142.57.269.858.4,1.021.448,2.064.85,3.06,1.346,1.577.786,1.964,2.158,1.752,3.8A3.651,3.651,0,0,1,312.9,48.53a4.688,4.688,0,0,1-5.213-1.986c-.153-.231-.3-.464-.508-.78a17.215,17.215,0,0,1-.439,1.927.694.694,0,0,0,.391.99,7.769,7.769,0,0,0,7.666.146,5.277,5.277,0,0,0,2.795-5.08,4.488,4.488,0,0,0-2.927-4.292c-.4-.182-.8-.355-1.189-.547a32.972,32.972,0,0,1-3.235-1.637,2.977,2.977,0,0,1-1.129-3.428,2.868,2.868,0,0,1,2.455-2.376,4.09,4.09,0,0,1,3.7,1.081c.256.246.465.54.773.9l.745-2.014m-113.127,17.5c-.034-2.4-.1-4.8-.1-7.206,0-3.082.044-6.164.061-9.246,0-.4.2-.494.549-.481,1.115.042,2.232.06,3.347.11.569.025,1.135.1,1.723.15V30.875h-13.6V32.21l5.6-.257V49.307h2.349a1.9,1.9,0,0,0,.07-.366" transform="translate(-22.501 -3.501)" fill="#fff"/>
    <path id="Path_53231" data-name="Path 53231" d="M74.121,98.919l-1.634-.961c1.027-1.781,2.026-3.513,3.068-5.32l1.65.943-3.084,5.337M77.2,50.688l-3.074-5.3-1.646.934,3.088,5.348,1.633-.982M61.7,86.515l.975,1.627,5.308-3.066-.939-1.653L61.7,86.515M61.7,57.787l5.336,3.078.941-1.647-5.317-3.071c-.344.589-.634,1.082-.96,1.64m2.5,13.484H58.182v1.8H64.2Zm23.355-24.9c0,1.7,0,1.7,1.712,1.528.042,0,.08-.044.139-.08v-6H87.555v4.555m27.727,11.409c-.342-.577-.634-1.073-.965-1.633l-5.078,2.93.943,1.65,5.1-2.947M104.506,46.328l-1.652-.949-2.933,5.091,1.639.951,2.946-5.094m-2.945,46.547-1.642.949,2.936,5.089,1.651-.948c-1-1.728-1.953-3.375-2.946-5.09M115.274,86.5l-5.095-2.931c-.33.58-.612,1.077-.936,1.644l5.088,2.943c.327-.576.624-1.095.943-1.656m-2.217-13.451h5.784V71.241h-5.784ZM87.622,102.471h1.806V96.689H87.622Z" transform="translate(-6.692 -4.81)" fill="#fff"/>
  </g>
</svg>
